<?xml version="1.0" encoding="UTF-8"?>
<svg xmlns="http://www.w3.org/2000/svg" xmlns:xlink="http://www.w3.org/1999/xlink" width="375pt" height="374.999991pt" viewBox="0 0 375 374.999991" version="1.2">
<defs>
<clipPath id="clip1">
  <path d="M 160 45.445312 L 215 45.445312 L 215 100 L 160 100 Z M 160 45.445312 "/>
</clipPath>
<clipPath id="clip2">
  <path d="M 160 275 L 215 275 L 215 329.695312 L 160 329.695312 Z M 160 275 "/>
</clipPath>
<clipPath id="clip3">
  <path d="M 45.445312 160 L 100 160 L 100 215 L 45.445312 215 Z M 45.445312 160 "/>
</clipPath>
<clipPath id="clip4">
  <path d="M 275 160 L 329.695312 160 L 329.695312 215 L 275 215 Z M 275 160 "/>
</clipPath>
<clipPath id="clip5">
  <path d="M 45.445312 45.445312 L 329.695312 45.445312 L 329.695312 329.695312 L 45.445312 329.695312 Z M 45.445312 45.445312 "/>
</clipPath>
</defs>
<g id="surface1">
<g clip-path="url(#clip1)" clip-rule="nonzero">
<path style=" stroke:none;fill-rule:nonzero;fill:rgb(11.759949%,56.469727%,100%);fill-opacity:1;" d="M 214.617188 72.492188 C 214.617188 73.378906 214.574219 74.261719 214.484375 75.144531 C 214.398438 76.023438 214.269531 76.898438 214.097656 77.769531 C 213.925781 78.636719 213.707031 79.496094 213.453125 80.34375 C 213.195312 81.191406 212.898438 82.023438 212.558594 82.84375 C 212.21875 83.660156 211.839844 84.460938 211.421875 85.242188 C 211.003906 86.023438 210.550781 86.78125 210.058594 87.519531 C 209.566406 88.253906 209.039062 88.964844 208.476562 89.652344 C 207.914062 90.335938 207.320312 90.992188 206.695312 91.617188 C 206.066406 92.242188 205.414062 92.835938 204.726562 93.398438 C 204.042969 93.960938 203.332031 94.488281 202.59375 94.980469 C 201.859375 95.472656 201.101562 95.929688 200.320312 96.34375 C 199.539062 96.761719 198.738281 97.140625 197.917969 97.480469 C 197.101562 97.820312 196.269531 98.117188 195.421875 98.375 C 194.574219 98.632812 193.714844 98.847656 192.84375 99.019531 C 191.976562 99.191406 191.101562 99.320312 190.21875 99.410156 C 189.339844 99.496094 188.453125 99.539062 187.570312 99.539062 C 186.683594 99.539062 185.800781 99.496094 184.917969 99.410156 C 184.035156 99.320312 183.160156 99.191406 182.292969 99.019531 C 181.421875 98.847656 180.566406 98.632812 179.71875 98.375 C 178.871094 98.117188 178.035156 97.820312 177.21875 97.480469 C 176.398438 97.140625 175.601562 96.761719 174.820312 96.34375 C 174.039062 95.929688 173.277344 95.472656 172.542969 94.980469 C 171.804688 94.488281 171.09375 93.960938 170.410156 93.398438 C 169.726562 92.835938 169.070312 92.242188 168.441406 91.617188 C 167.816406 90.992188 167.222656 90.335938 166.660156 89.652344 C 166.097656 88.964844 165.570312 88.253906 165.078125 87.519531 C 164.585938 86.78125 164.132812 86.023438 163.714844 85.242188 C 163.296875 84.460938 162.917969 83.660156 162.578125 82.84375 C 162.242188 82.023438 161.941406 81.191406 161.683594 80.34375 C 161.429688 79.496094 161.214844 78.636719 161.039062 77.769531 C 160.867188 76.898438 160.738281 76.023438 160.652344 75.144531 C 160.5625 74.261719 160.519531 73.378906 160.519531 72.492188 C 160.519531 71.605469 160.5625 70.722656 160.652344 69.839844 C 160.738281 68.957031 160.867188 68.082031 161.039062 67.214844 C 161.214844 66.347656 161.429688 65.488281 161.683594 64.640625 C 161.941406 63.792969 162.242188 62.960938 162.578125 62.140625 C 162.917969 61.324219 163.296875 60.523438 163.714844 59.742188 C 164.132812 58.960938 164.585938 58.199219 165.078125 57.464844 C 165.570312 56.726562 166.097656 56.015625 166.660156 55.332031 C 167.222656 54.648438 167.816406 53.992188 168.441406 53.367188 C 169.070312 52.738281 169.726562 52.144531 170.410156 51.582031 C 171.09375 51.019531 171.804688 50.496094 172.542969 50.003906 C 173.277344 49.511719 174.039062 49.054688 174.820312 48.636719 C 175.601562 48.21875 176.398438 47.839844 177.21875 47.503906 C 178.035156 47.164062 178.871094 46.867188 179.71875 46.609375 C 180.566406 46.351562 181.421875 46.136719 182.292969 45.964844 C 183.160156 45.789062 184.035156 45.660156 184.917969 45.574219 C 185.800781 45.488281 186.683594 45.445312 187.570312 45.445312 C 188.453125 45.445312 189.339844 45.488281 190.21875 45.574219 C 191.101562 45.660156 191.976562 45.789062 192.84375 45.964844 C 193.714844 46.136719 194.574219 46.351562 195.421875 46.609375 C 196.269531 46.867188 197.101562 47.164062 197.917969 47.503906 C 198.738281 47.839844 199.539062 48.21875 200.320312 48.636719 C 201.101562 49.054688 201.859375 49.511719 202.59375 50.003906 C 203.332031 50.496094 204.042969 51.019531 204.726562 51.582031 C 205.414062 52.144531 206.066406 52.738281 206.695312 53.367188 C 207.320312 53.992188 207.914062 54.648438 208.476562 55.332031 C 209.039062 56.015625 209.566406 56.726562 210.058594 57.464844 C 210.550781 58.199219 211.003906 58.960938 211.421875 59.742188 C 211.839844 60.523438 212.21875 61.324219 212.558594 62.140625 C 212.898438 62.960938 213.195312 63.792969 213.453125 64.640625 C 213.707031 65.488281 213.925781 66.347656 214.097656 67.214844 C 214.269531 68.082031 214.398438 68.957031 214.484375 69.839844 C 214.574219 70.722656 214.617188 71.605469 214.617188 72.492188 Z M 214.617188 72.492188 "/>
</g>
<g clip-path="url(#clip2)" clip-rule="nonzero">
<path style=" stroke:none;fill-rule:nonzero;fill:rgb(11.759949%,56.469727%,100%);fill-opacity:1;" d="M 214.617188 302.644531 C 214.617188 303.53125 214.574219 304.414062 214.484375 305.296875 C 214.398438 306.179688 214.269531 307.054688 214.097656 307.921875 C 213.925781 308.792969 213.707031 309.648438 213.453125 310.496094 C 213.195312 311.34375 212.898438 312.179688 212.558594 312.996094 C 212.21875 313.816406 211.839844 314.613281 211.421875 315.394531 C 211.003906 316.175781 210.550781 316.9375 210.058594 317.671875 C 209.566406 318.410156 209.039062 319.121094 208.476562 319.804688 C 207.914062 320.488281 207.320312 321.144531 206.695312 321.773438 C 206.066406 322.398438 205.414062 322.992188 204.726562 323.554688 C 204.042969 324.117188 203.332031 324.644531 202.59375 325.136719 C 201.859375 325.628906 201.101562 326.082031 200.320312 326.5 C 199.539062 326.917969 198.738281 327.296875 197.917969 327.632812 C 197.101562 327.972656 196.269531 328.273438 195.421875 328.527344 C 194.574219 328.785156 193.714844 329 192.84375 329.175781 C 191.976562 329.347656 191.101562 329.476562 190.21875 329.5625 C 189.339844 329.648438 188.453125 329.695312 187.570312 329.695312 C 186.683594 329.695312 185.800781 329.648438 184.917969 329.5625 C 184.035156 329.476562 183.160156 329.347656 182.292969 329.175781 C 181.421875 329 180.566406 328.785156 179.71875 328.527344 C 178.871094 328.273438 178.035156 327.972656 177.21875 327.632812 C 176.398438 327.296875 175.601562 326.917969 174.820312 326.5 C 174.039062 326.082031 173.277344 325.628906 172.542969 325.136719 C 171.804688 324.644531 171.09375 324.117188 170.410156 323.554688 C 169.726562 322.992188 169.070312 322.398438 168.441406 321.773438 C 167.816406 321.144531 167.222656 320.488281 166.660156 319.804688 C 166.097656 319.121094 165.570312 318.410156 165.078125 317.671875 C 164.585938 316.9375 164.132812 316.175781 163.714844 315.394531 C 163.296875 314.613281 162.917969 313.816406 162.578125 312.996094 C 162.242188 312.179688 161.941406 311.34375 161.683594 310.496094 C 161.429688 309.648438 161.214844 308.792969 161.039062 307.921875 C 160.867188 307.054688 160.738281 306.179688 160.652344 305.296875 C 160.5625 304.414062 160.519531 303.53125 160.519531 302.644531 C 160.519531 301.761719 160.5625 300.875 160.652344 299.996094 C 160.738281 299.113281 160.867188 298.238281 161.039062 297.367188 C 161.214844 296.5 161.429688 295.640625 161.683594 294.792969 C 161.941406 293.945312 162.242188 293.113281 162.578125 292.296875 C 162.917969 291.476562 163.296875 290.675781 163.714844 289.894531 C 164.132812 289.113281 164.585938 288.355469 165.078125 287.617188 C 165.570312 286.882812 166.097656 286.171875 166.660156 285.488281 C 167.222656 284.800781 167.816406 284.148438 168.441406 283.519531 C 169.070312 282.894531 169.726562 282.300781 170.410156 281.738281 C 171.09375 281.175781 171.804688 280.648438 172.542969 280.15625 C 173.277344 279.664062 174.039062 279.210938 174.820312 278.792969 C 175.601562 278.375 176.398438 277.996094 177.21875 277.65625 C 178.035156 277.316406 178.871094 277.019531 179.71875 276.761719 C 180.566406 276.503906 181.421875 276.289062 182.292969 276.117188 C 183.160156 275.945312 184.035156 275.816406 184.917969 275.726562 C 185.800781 275.640625 186.683594 275.597656 187.570312 275.597656 C 188.453125 275.597656 189.339844 275.640625 190.21875 275.726562 C 191.101562 275.816406 191.976562 275.945312 192.84375 276.117188 C 193.714844 276.289062 194.574219 276.503906 195.421875 276.761719 C 196.269531 277.019531 197.101562 277.316406 197.917969 277.65625 C 198.738281 277.996094 199.539062 278.375 200.320312 278.792969 C 201.101562 279.210938 201.859375 279.664062 202.59375 280.15625 C 203.332031 280.648438 204.042969 281.175781 204.726562 281.738281 C 205.414062 282.300781 206.066406 282.894531 206.695312 283.519531 C 207.320312 284.148438 207.914062 284.800781 208.476562 285.488281 C 209.039062 286.171875 209.566406 286.882812 210.058594 287.617188 C 210.550781 288.355469 211.003906 289.113281 211.421875 289.894531 C 211.839844 290.675781 212.21875 291.476562 212.558594 292.296875 C 212.898438 293.113281 213.195312 293.945312 213.453125 294.792969 C 213.707031 295.640625 213.925781 296.5 214.097656 297.367188 C 214.269531 298.238281 214.398438 299.113281 214.484375 299.996094 C 214.574219 300.875 214.617188 301.761719 214.617188 302.644531 Z M 214.617188 302.644531 "/>
</g>
<g clip-path="url(#clip3)" clip-rule="nonzero">
<path style=" stroke:none;fill-rule:nonzero;fill:rgb(11.759949%,56.469727%,100%);fill-opacity:1;" d="M 99.539062 187.570312 C 99.539062 188.453125 99.496094 189.339844 99.410156 190.21875 C 99.320312 191.101562 99.191406 191.976562 99.019531 192.84375 C 98.847656 193.714844 98.632812 194.574219 98.375 195.421875 C 98.117188 196.269531 97.820312 197.101562 97.480469 197.917969 C 97.140625 198.738281 96.761719 199.539062 96.34375 200.320312 C 95.929688 201.101562 95.472656 201.859375 94.980469 202.59375 C 94.488281 203.332031 93.960938 204.042969 93.398438 204.726562 C 92.835938 205.414062 92.242188 206.066406 91.617188 206.695312 C 90.992188 207.320312 90.335938 207.914062 89.652344 208.476562 C 88.964844 209.039062 88.253906 209.566406 87.519531 210.058594 C 86.78125 210.550781 86.023438 211.003906 85.242188 211.421875 C 84.460938 211.839844 83.660156 212.21875 82.84375 212.558594 C 82.023438 212.898438 81.191406 213.195312 80.34375 213.453125 C 79.496094 213.707031 78.636719 213.925781 77.769531 214.097656 C 76.898438 214.269531 76.023438 214.398438 75.144531 214.484375 C 74.261719 214.574219 73.378906 214.617188 72.492188 214.617188 C 71.605469 214.617188 70.722656 214.574219 69.839844 214.484375 C 68.957031 214.398438 68.082031 214.269531 67.214844 214.097656 C 66.347656 213.925781 65.488281 213.707031 64.640625 213.453125 C 63.792969 213.195312 62.960938 212.898438 62.140625 212.558594 C 61.324219 212.21875 60.523438 211.839844 59.742188 211.421875 C 58.960938 211.003906 58.199219 210.550781 57.464844 210.058594 C 56.726562 209.566406 56.015625 209.039062 55.332031 208.476562 C 54.648438 207.914062 53.992188 207.320312 53.367188 206.695312 C 52.738281 206.066406 52.144531 205.414062 51.582031 204.726562 C 51.019531 204.042969 50.496094 203.332031 50.003906 202.59375 C 49.511719 201.859375 49.054688 201.101562 48.636719 200.320312 C 48.21875 199.539062 47.839844 198.738281 47.503906 197.917969 C 47.164062 197.101562 46.867188 196.269531 46.609375 195.421875 C 46.351562 194.574219 46.136719 193.714844 45.964844 192.84375 C 45.789062 191.976562 45.660156 191.101562 45.574219 190.21875 C 45.488281 189.339844 45.445312 188.453125 45.445312 187.570312 C 45.445312 186.683594 45.488281 185.800781 45.574219 184.917969 C 45.660156 184.035156 45.789062 183.160156 45.964844 182.292969 C 46.136719 181.421875 46.351562 180.566406 46.609375 179.71875 C 46.867188 178.871094 47.164062 178.035156 47.503906 177.21875 C 47.839844 176.398438 48.21875 175.601562 48.636719 174.820312 C 49.054688 174.039062 49.511719 173.277344 50.003906 172.542969 C 50.496094 171.804688 51.019531 171.09375 51.582031 170.410156 C 52.144531 169.726562 52.738281 169.070312 53.367188 168.441406 C 53.992188 167.816406 54.648438 167.222656 55.332031 166.660156 C 56.015625 166.097656 56.726562 165.570312 57.464844 165.078125 C 58.199219 164.585938 58.960938 164.132812 59.742188 163.714844 C 60.523438 163.296875 61.324219 162.917969 62.140625 162.578125 C 62.960938 162.242188 63.792969 161.941406 64.640625 161.683594 C 65.488281 161.429688 66.347656 161.214844 67.214844 161.039062 C 68.082031 160.867188 68.957031 160.738281 69.839844 160.652344 C 70.722656 160.5625 71.605469 160.519531 72.492188 160.519531 C 73.378906 160.519531 74.261719 160.5625 75.144531 160.652344 C 76.023438 160.738281 76.898438 160.867188 77.769531 161.039062 C 78.636719 161.214844 79.496094 161.429688 80.34375 161.683594 C 81.191406 161.941406 82.023438 162.242188 82.84375 162.578125 C 83.660156 162.917969 84.460938 163.296875 85.242188 163.714844 C 86.023438 164.132812 86.78125 164.585938 87.519531 165.078125 C 88.253906 165.570312 88.964844 166.097656 89.652344 166.660156 C 90.335938 167.222656 90.992188 167.816406 91.617188 168.441406 C 92.242188 169.070312 92.835938 169.726562 93.398438 170.410156 C 93.960938 171.09375 94.488281 171.804688 94.980469 172.542969 C 95.472656 173.277344 95.929688 174.039062 96.34375 174.820312 C 96.761719 175.601562 97.140625 176.398438 97.480469 177.21875 C 97.820312 178.035156 98.117188 178.871094 98.375 179.71875 C 98.632812 180.566406 98.847656 181.421875 99.019531 182.292969 C 99.191406 183.160156 99.320312 184.035156 99.410156 184.917969 C 99.496094 185.800781 99.539062 186.683594 99.539062 187.570312 Z M 99.539062 187.570312 "/>
</g>
<g clip-path="url(#clip4)" clip-rule="nonzero">
<path style=" stroke:none;fill-rule:nonzero;fill:rgb(11.759949%,56.469727%,100%);fill-opacity:1;" d="M 329.695312 187.570312 C 329.695312 188.453125 329.648438 189.339844 329.5625 190.21875 C 329.476562 191.101562 329.347656 191.976562 329.175781 192.84375 C 329 193.714844 328.785156 194.574219 328.527344 195.421875 C 328.273438 196.269531 327.972656 197.101562 327.632812 197.917969 C 327.296875 198.738281 326.917969 199.539062 326.5 200.320312 C 326.082031 201.101562 325.628906 201.859375 325.136719 202.59375 C 324.644531 203.332031 324.117188 204.042969 323.554688 204.726562 C 322.992188 205.414062 322.398438 206.066406 321.773438 206.695312 C 321.144531 207.320312 320.488281 207.914062 319.804688 208.476562 C 319.121094 209.039062 318.410156 209.566406 317.671875 210.058594 C 316.9375 210.550781 316.175781 211.003906 315.394531 211.421875 C 314.613281 211.839844 313.816406 212.21875 312.996094 212.558594 C 312.179688 212.898438 311.34375 213.195312 310.496094 213.453125 C 309.648438 213.707031 308.792969 213.925781 307.921875 214.097656 C 307.054688 214.269531 306.179688 214.398438 305.296875 214.484375 C 304.414062 214.574219 303.53125 214.617188 302.644531 214.617188 C 301.761719 214.617188 300.875 214.574219 299.996094 214.484375 C 299.113281 214.398438 298.238281 214.269531 297.367188 214.097656 C 296.5 213.925781 295.640625 213.707031 294.792969 213.453125 C 293.945312 213.195312 293.113281 212.898438 292.296875 212.558594 C 291.476562 212.21875 290.675781 211.839844 289.894531 211.421875 C 289.113281 211.003906 288.355469 210.550781 287.617188 210.058594 C 286.882812 209.566406 286.171875 209.039062 285.488281 208.476562 C 284.800781 207.914062 284.148438 207.320312 283.519531 206.695312 C 282.894531 206.066406 282.300781 205.414062 281.738281 204.726562 C 281.175781 204.042969 280.648438 203.332031 280.15625 202.59375 C 279.664062 201.859375 279.210938 201.101562 278.792969 200.320312 C 278.375 199.539062 277.996094 198.738281 277.65625 197.917969 C 277.316406 197.101562 277.019531 196.269531 276.761719 195.421875 C 276.503906 194.574219 276.289062 193.714844 276.117188 192.84375 C 275.945312 191.976562 275.816406 191.101562 275.726562 190.21875 C 275.640625 189.339844 275.597656 188.453125 275.597656 187.570312 C 275.597656 186.683594 275.640625 185.800781 275.726562 184.917969 C 275.816406 184.035156 275.945312 183.160156 276.117188 182.292969 C 276.289062 181.421875 276.503906 180.566406 276.761719 179.71875 C 277.019531 178.871094 277.316406 178.035156 277.65625 177.21875 C 277.996094 176.398438 278.375 175.601562 278.792969 174.820312 C 279.210938 174.039062 279.664062 173.277344 280.15625 172.542969 C 280.648438 171.804688 281.175781 171.09375 281.738281 170.410156 C 282.300781 169.726562 282.894531 169.070312 283.519531 168.441406 C 284.148438 167.816406 284.800781 167.222656 285.488281 166.660156 C 286.171875 166.097656 286.882812 165.570312 287.617188 165.078125 C 288.355469 164.585938 289.113281 164.132812 289.894531 163.714844 C 290.675781 163.296875 291.476562 162.917969 292.296875 162.578125 C 293.113281 162.242188 293.945312 161.941406 294.792969 161.683594 C 295.640625 161.429688 296.5 161.214844 297.367188 161.039062 C 298.238281 160.867188 299.113281 160.738281 299.996094 160.652344 C 300.875 160.5625 301.761719 160.519531 302.644531 160.519531 C 303.53125 160.519531 304.414062 160.5625 305.296875 160.652344 C 306.179688 160.738281 307.054688 160.867188 307.921875 161.039062 C 308.792969 161.214844 309.648438 161.429688 310.496094 161.683594 C 311.34375 161.941406 312.179688 162.242188 312.996094 162.578125 C 313.816406 162.917969 314.613281 163.296875 315.394531 163.714844 C 316.175781 164.132812 316.9375 164.585938 317.671875 165.078125 C 318.410156 165.570312 319.121094 166.097656 319.804688 166.660156 C 320.488281 167.222656 321.144531 167.816406 321.773438 168.441406 C 322.398438 169.070312 322.992188 169.726562 323.554688 170.410156 C 324.117188 171.09375 324.644531 171.804688 325.136719 172.542969 C 325.628906 173.277344 326.082031 174.039062 326.5 174.820312 C 326.917969 175.601562 327.296875 176.398438 327.632812 177.21875 C 327.972656 178.035156 328.273438 178.871094 328.527344 179.71875 C 328.785156 180.566406 329 181.421875 329.175781 182.292969 C 329.347656 183.160156 329.476562 184.035156 329.5625 184.917969 C 329.648438 185.800781 329.695312 186.683594 329.695312 187.570312 Z M 329.695312 187.570312 "/>
</g>
<g clip-path="url(#clip5)" clip-rule="nonzero">
<path style=" stroke:none;fill-rule:nonzero;fill:rgb(13.729858%,12.159729%,12.548828%);fill-opacity:1;" d="M 265.964844 261.183594 L 229.019531 224.238281 C 219.371094 214.589844 214.507812 201.386719 214.59375 187.746094 C 214.59375 187.625 214.59375 187.507812 214.59375 187.390625 C 214.507812 173.75 219.371094 160.546875 229.019531 150.898438 L 266.050781 113.867188 C 275.695312 104.222656 288.910156 99.464844 302.546875 99.527344 C 309.664062 99.5625 316.789062 96.800781 322.140625 91.242188 C 331.890625 81.113281 332.140625 64.71875 322.679688 54.320312 C 312.214844 42.8125 294.390625 42.496094 283.519531 53.367188 C 278.164062 58.722656 275.527344 65.761719 275.609375 72.777344 C 275.765625 86.386719 270.808594 99.546875 261.183594 109.171875 L 224.238281 146.117188 C 214.589844 155.765625 201.386719 160.628906 187.742188 160.542969 C 187.628906 160.542969 187.511719 160.542969 187.394531 160.542969 C 173.75 160.628906 160.546875 155.765625 150.898438 146.117188 L 113.867188 109.085938 C 104.222656 99.441406 99.464844 86.226562 99.527344 72.589844 C 99.5625 65.472656 96.800781 58.347656 91.242188 52.996094 C 81.113281 43.246094 64.71875 42.996094 54.316406 52.457031 C 42.8125 62.921875 42.496094 80.746094 53.367188 91.617188 C 58.722656 96.972656 65.761719 99.609375 72.777344 99.527344 C 86.386719 99.367188 99.550781 104.328125 109.171875 113.953125 L 146.117188 150.898438 C 155.765625 160.546875 160.628906 173.75 160.542969 187.390625 C 160.542969 187.507812 160.542969 187.625 160.542969 187.746094 C 160.628906 201.386719 155.765625 214.589844 146.117188 224.238281 L 109.085938 261.269531 C 99.441406 270.914062 86.226562 275.671875 72.589844 275.609375 C 65.472656 275.574219 58.347656 278.335938 52.996094 283.894531 C 43.246094 294.023438 42.996094 310.417969 52.457031 320.816406 C 62.921875 332.324219 80.746094 332.640625 91.617188 321.769531 C 96.972656 316.414062 99.609375 309.375 99.527344 302.359375 C 99.367188 288.75 104.328125 275.589844 113.953125 265.964844 L 150.898438 229.019531 C 160.546875 219.371094 173.75 214.507812 187.394531 214.59375 C 187.507812 214.59375 187.625 214.59375 187.742188 214.59375 C 201.386719 214.507812 214.589844 219.371094 224.238281 229.019531 L 261.269531 266.050781 C 270.914062 275.695312 275.671875 288.910156 275.609375 302.546875 C 275.574219 309.664062 278.335938 316.789062 283.894531 322.140625 C 294.023438 331.890625 310.417969 332.140625 320.816406 322.679688 C 332.324219 312.214844 332.640625 294.390625 321.769531 283.519531 C 316.414062 278.164062 309.375 275.527344 302.359375 275.609375 C 288.75 275.765625 275.585938 270.808594 265.964844 261.183594 Z M 265.964844 261.183594 "/>
</g>
</g>
</svg>
