<?xml version="1.0" encoding="UTF-8"?>
<svg xmlns="http://www.w3.org/2000/svg" xmlns:xlink="http://www.w3.org/1999/xlink" width="375pt" height="374.999991pt" viewBox="0 0 375 374.999991" version="1.2">
<defs>
<clipPath id="clip1">
  <path d="M 166 76.582031 L 209 76.582031 L 209 119 L 166 119 Z M 166 76.582031 "/>
</clipPath>
<clipPath id="clip2">
  <path d="M 166 256 L 209 256 L 209 298.582031 L 166 298.582031 Z M 166 256 "/>
</clipPath>
<clipPath id="clip3">
  <path d="M 76.582031 166 L 119 166 L 119 209 L 76.582031 209 Z M 76.582031 166 "/>
</clipPath>
<clipPath id="clip4">
  <path d="M 256 166 L 298.582031 166 L 298.582031 209 L 256 209 Z M 256 166 "/>
</clipPath>
<clipPath id="clip5">
  <path d="M 76.582031 76.582031 L 298.582031 76.582031 L 298.582031 298.582031 L 76.582031 298.582031 Z M 76.582031 76.582031 "/>
</clipPath>
</defs>
<g id="surface1">
<path style=" stroke:none;fill-rule:nonzero;fill:rgb(100%,100%,100%);fill-opacity:1;" d="M 187.5 0 C 184.429688 0 181.363281 0.0742188 178.300781 0.226562 C 175.234375 0.375 172.175781 0.601562 169.121094 0.902344 C 166.066406 1.203125 163.023438 1.578125 159.988281 2.03125 C 156.953125 2.480469 153.929688 3.003906 150.921875 3.601562 C 147.910156 4.203125 144.917969 4.875 141.941406 5.621094 C 138.964844 6.363281 136.007812 7.183594 133.070312 8.074219 C 130.136719 8.964844 127.222656 9.925781 124.332031 10.960938 C 121.445312 11.996094 118.582031 13.097656 115.746094 14.273438 C 112.910156 15.445312 110.105469 16.691406 107.332031 18.003906 C 104.558594 19.3125 101.820312 20.691406 99.113281 22.140625 C 96.40625 23.585938 93.738281 25.097656 91.105469 26.675781 C 88.472656 28.253906 85.882812 29.894531 83.332031 31.597656 C 80.777344 33.304688 78.269531 35.070312 75.804688 36.898438 C 73.339844 38.726562 70.921875 40.613281 68.550781 42.558594 C 66.179688 44.507812 63.855469 46.511719 61.582031 48.570312 C 59.308594 50.632812 57.085938 52.746094 54.917969 54.917969 C 52.746094 57.085938 50.632812 59.308594 48.570312 61.582031 C 46.511719 63.855469 44.507812 66.179688 42.558594 68.550781 C 40.613281 70.921875 38.726562 73.339844 36.898438 75.804688 C 35.070312 78.269531 33.304688 80.777344 31.597656 83.332031 C 29.894531 85.882812 28.253906 88.472656 26.675781 91.105469 C 25.097656 93.738281 23.585938 96.40625 22.140625 99.113281 C 20.691406 101.820312 19.3125 104.558594 18.003906 107.332031 C 16.691406 110.105469 15.445312 112.910156 14.273438 115.746094 C 13.097656 118.582031 11.996094 121.445312 10.960938 124.332031 C 9.925781 127.222656 8.964844 130.136719 8.074219 133.070312 C 7.183594 136.007812 6.363281 138.964844 5.621094 141.941406 C 4.875 144.917969 4.203125 147.910156 3.601562 150.921875 C 3.003906 153.929688 2.480469 156.953125 2.03125 159.988281 C 1.578125 163.023438 1.203125 166.066406 0.902344 169.121094 C 0.601562 172.175781 0.375 175.234375 0.226562 178.300781 C 0.0742188 181.363281 0 184.429688 0 187.5 C 0 190.570312 0.0742188 193.636719 0.226562 196.699219 C 0.375 199.765625 0.601562 202.824219 0.902344 205.878906 C 1.203125 208.933594 1.578125 211.976562 2.03125 215.011719 C 2.480469 218.046875 3.003906 221.070312 3.601562 224.078125 C 4.203125 227.089844 4.875 230.082031 5.621094 233.058594 C 6.363281 236.035156 7.183594 238.992188 8.074219 241.929688 C 8.964844 244.863281 9.925781 247.777344 10.960938 250.667969 C 11.996094 253.554688 13.097656 256.417969 14.273438 259.253906 C 15.445312 262.089844 16.691406 264.890625 18.003906 267.667969 C 19.3125 270.441406 20.691406 273.179688 22.140625 275.886719 C 23.585938 278.59375 25.097656 281.261719 26.675781 283.894531 C 28.253906 286.527344 29.894531 289.117188 31.597656 291.667969 C 33.304688 294.222656 35.070312 296.730469 36.898438 299.195312 C 38.726562 301.660156 40.613281 304.078125 42.558594 306.449219 C 44.507812 308.820312 46.511719 311.144531 48.570312 313.417969 C 50.632812 315.691406 52.746094 317.914062 54.917969 320.082031 C 57.085938 322.253906 59.308594 324.367188 61.582031 326.429688 C 63.855469 328.488281 66.179688 330.492188 68.550781 332.4375 C 70.921875 334.386719 73.339844 336.273438 75.804688 338.101562 C 78.269531 339.929688 80.777344 341.695312 83.332031 343.402344 C 85.882812 345.105469 88.472656 346.746094 91.105469 348.324219 C 93.738281 349.902344 96.40625 351.414062 99.113281 352.859375 C 101.820312 354.308594 104.558594 355.6875 107.332031 356.996094 C 110.105469 358.308594 112.910156 359.554688 115.746094 360.726562 C 118.582031 361.902344 121.445312 363.003906 124.332031 364.039062 C 127.222656 365.074219 130.136719 366.035156 133.070312 366.925781 C 136.007812 367.816406 138.964844 368.636719 141.941406 369.378906 C 144.917969 370.125 147.910156 370.796875 150.921875 371.398438 C 153.929688 371.996094 156.953125 372.519531 159.988281 372.96875 C 163.023438 373.421875 166.066406 373.796875 169.121094 374.097656 C 172.175781 374.398438 175.234375 374.625 178.300781 374.773438 C 181.363281 374.925781 184.429688 375 187.5 375 C 190.570312 375 193.636719 374.925781 196.699219 374.773438 C 199.765625 374.625 202.824219 374.398438 205.878906 374.097656 C 208.933594 373.796875 211.976562 373.421875 215.011719 372.96875 C 218.046875 372.519531 221.070312 371.996094 224.078125 371.398438 C 227.089844 370.796875 230.082031 370.125 233.058594 369.378906 C 236.035156 368.636719 238.992188 367.816406 241.929688 366.925781 C 244.863281 366.035156 247.777344 365.074219 250.667969 364.039062 C 253.554688 363.003906 256.417969 361.902344 259.253906 360.726562 C 262.089844 359.554688 264.890625 358.308594 267.667969 356.996094 C 270.441406 355.6875 273.179688 354.308594 275.886719 352.859375 C 278.59375 351.414062 281.261719 349.902344 283.894531 348.324219 C 286.527344 346.746094 289.117188 345.105469 291.667969 343.402344 C 294.222656 341.695312 296.730469 339.929688 299.195312 338.101562 C 301.660156 336.273438 304.078125 334.386719 306.449219 332.4375 C 308.820312 330.492188 311.144531 328.488281 313.417969 326.429688 C 315.691406 324.367188 317.914062 322.253906 320.082031 320.082031 C 322.253906 317.914062 324.367188 315.691406 326.429688 313.417969 C 328.488281 311.144531 330.492188 308.820312 332.4375 306.449219 C 334.386719 304.078125 336.273438 301.660156 338.101562 299.195312 C 339.929688 296.730469 341.695312 294.222656 343.402344 291.667969 C 345.105469 289.117188 346.746094 286.527344 348.324219 283.894531 C 349.902344 281.261719 351.414062 278.59375 352.859375 275.886719 C 354.308594 273.179688 355.6875 270.441406 356.996094 267.667969 C 358.308594 264.890625 359.554688 262.089844 360.726562 259.253906 C 361.902344 256.417969 363.003906 253.554688 364.039062 250.667969 C 365.074219 247.777344 366.035156 244.863281 366.925781 241.929688 C 367.816406 238.992188 368.636719 236.035156 369.378906 233.058594 C 370.125 230.082031 370.796875 227.089844 371.398438 224.078125 C 371.996094 221.070312 372.519531 218.046875 372.96875 215.011719 C 373.421875 211.976562 373.796875 208.933594 374.097656 205.878906 C 374.398438 202.824219 374.625 199.765625 374.773438 196.699219 C 374.925781 193.636719 375 190.570312 375 187.5 C 375 184.429688 374.925781 181.363281 374.773438 178.300781 C 374.625 175.234375 374.398438 172.175781 374.097656 169.121094 C 373.796875 166.066406 373.421875 163.023438 372.96875 159.988281 C 372.519531 156.953125 371.996094 153.929688 371.398438 150.921875 C 370.796875 147.910156 370.125 144.917969 369.378906 141.941406 C 368.636719 138.964844 367.816406 136.007812 366.925781 133.070312 C 366.035156 130.136719 365.074219 127.222656 364.039062 124.332031 C 363.003906 121.445312 361.902344 118.582031 360.726562 115.746094 C 359.554688 112.910156 358.308594 110.105469 356.996094 107.332031 C 355.6875 104.558594 354.308594 101.820312 352.859375 99.113281 C 351.414062 96.40625 349.902344 93.738281 348.324219 91.105469 C 346.746094 88.472656 345.105469 85.882812 343.402344 83.332031 C 341.695312 80.777344 339.929688 78.269531 338.101562 75.804688 C 336.273438 73.339844 334.386719 70.921875 332.4375 68.550781 C 330.492188 66.179688 328.488281 63.855469 326.429688 61.582031 C 324.367188 59.308594 322.253906 57.085938 320.082031 54.917969 C 317.914062 52.746094 315.691406 50.632812 313.417969 48.570312 C 311.144531 46.511719 308.820312 44.507812 306.449219 42.558594 C 304.078125 40.613281 301.660156 38.726562 299.195312 36.898438 C 296.730469 35.070312 294.222656 33.304688 291.667969 31.597656 C 289.117188 29.894531 286.527344 28.253906 283.894531 26.675781 C 281.261719 25.097656 278.59375 23.585938 275.886719 22.140625 C 273.179688 20.691406 270.441406 19.3125 267.667969 18.003906 C 264.890625 16.691406 262.089844 15.445312 259.253906 14.273438 C 256.417969 13.097656 253.554688 11.996094 250.667969 10.960938 C 247.777344 9.925781 244.863281 8.964844 241.929688 8.074219 C 238.992188 7.183594 236.035156 6.363281 233.058594 5.621094 C 230.082031 4.875 227.089844 4.203125 224.078125 3.601562 C 221.070312 3.003906 218.046875 2.480469 215.011719 2.03125 C 211.976562 1.578125 208.933594 1.203125 205.878906 0.902344 C 202.824219 0.601562 199.765625 0.375 196.699219 0.226562 C 193.636719 0.0742188 190.570312 0 187.5 0 Z M 187.5 0 "/>
<g clip-path="url(#clip1)" clip-rule="nonzero">
<path style=" stroke:none;fill-rule:nonzero;fill:rgb(11.759949%,56.469727%,100%);fill-opacity:1;" d="M 208.707031 97.707031 C 208.707031 98.398438 208.671875 99.089844 208.605469 99.777344 C 208.539062 100.464844 208.4375 101.148438 208.300781 101.828125 C 208.167969 102.507812 208 103.175781 207.796875 103.839844 C 207.597656 104.5 207.363281 105.152344 207.097656 105.792969 C 206.835938 106.429688 206.539062 107.054688 206.214844 107.664062 C 205.886719 108.277344 205.53125 108.867188 205.148438 109.445312 C 204.761719 110.019531 204.351562 110.574219 203.914062 111.109375 C 203.472656 111.644531 203.007812 112.15625 202.519531 112.644531 C 202.03125 113.132812 201.519531 113.597656 200.984375 114.035156 C 200.449219 114.476562 199.894531 114.886719 199.320312 115.273438 C 198.742188 115.65625 198.152344 116.011719 197.539062 116.335938 C 196.929688 116.664062 196.304688 116.960938 195.667969 117.222656 C 195.027344 117.488281 194.378906 117.722656 193.714844 117.921875 C 193.054688 118.121094 192.382812 118.289062 191.703125 118.425781 C 191.027344 118.5625 190.34375 118.664062 189.652344 118.730469 C 188.964844 118.796875 188.273438 118.832031 187.582031 118.832031 C 186.890625 118.832031 186.199219 118.796875 185.511719 118.730469 C 184.824219 118.664062 184.140625 118.5625 183.460938 118.425781 C 182.785156 118.289062 182.113281 118.121094 181.449219 117.921875 C 180.789062 117.722656 180.136719 117.488281 179.5 117.222656 C 178.859375 116.960938 178.234375 116.664062 177.625 116.335938 C 177.015625 116.011719 176.421875 115.65625 175.847656 115.273438 C 175.273438 114.886719 174.714844 114.476562 174.183594 114.035156 C 173.648438 113.597656 173.136719 113.132812 172.644531 112.644531 C 172.15625 112.15625 171.691406 111.644531 171.253906 111.109375 C 170.816406 110.574219 170.402344 110.019531 170.019531 109.445312 C 169.632812 108.867188 169.277344 108.277344 168.953125 107.664062 C 168.625 107.054688 168.332031 106.429688 168.066406 105.792969 C 167.800781 105.152344 167.570312 104.5 167.367188 103.839844 C 167.167969 103.175781 167 102.507812 166.863281 101.828125 C 166.730469 101.148438 166.628906 100.464844 166.558594 99.777344 C 166.492188 99.089844 166.457031 98.398438 166.457031 97.707031 C 166.457031 97.015625 166.492188 96.324219 166.558594 95.636719 C 166.628906 94.949219 166.730469 94.265625 166.863281 93.585938 C 167 92.90625 167.167969 92.238281 167.367188 91.574219 C 167.570312 90.914062 167.800781 90.261719 168.066406 89.625 C 168.332031 88.984375 168.625 88.359375 168.953125 87.75 C 169.277344 87.140625 169.632812 86.546875 170.019531 85.972656 C 170.402344 85.394531 170.816406 84.839844 171.253906 84.304688 C 171.691406 83.769531 172.15625 83.257812 172.644531 82.769531 C 173.136719 82.28125 173.648438 81.816406 174.183594 81.378906 C 174.714844 80.9375 175.273438 80.527344 175.847656 80.144531 C 176.421875 79.757812 177.015625 79.402344 177.625 79.078125 C 178.234375 78.75 178.859375 78.457031 179.5 78.191406 C 180.136719 77.925781 180.789062 77.695312 181.449219 77.492188 C 182.113281 77.292969 182.78125 77.125 183.460938 76.988281 C 184.140625 76.855469 184.824219 76.753906 185.511719 76.683594 C 186.199219 76.617188 186.890625 76.582031 187.582031 76.582031 C 188.273438 76.582031 188.964844 76.617188 189.652344 76.683594 C 190.34375 76.753906 191.027344 76.855469 191.703125 76.988281 C 192.382812 77.125 193.054688 77.292969 193.714844 77.492188 C 194.378906 77.695312 195.027344 77.925781 195.667969 78.191406 C 196.304688 78.457031 196.929688 78.75 197.539062 79.078125 C 198.152344 79.402344 198.742188 79.757812 199.320312 80.144531 C 199.894531 80.527344 200.449219 80.9375 200.984375 81.378906 C 201.519531 81.816406 202.03125 82.28125 202.519531 82.769531 C 203.007812 83.257812 203.472656 83.769531 203.914062 84.304688 C 204.351562 84.839844 204.761719 85.394531 205.148438 85.972656 C 205.53125 86.546875 205.886719 87.140625 206.214844 87.75 C 206.539062 88.359375 206.835938 88.984375 207.097656 89.625 C 207.363281 90.261719 207.597656 90.914062 207.796875 91.574219 C 208 92.238281 208.167969 92.90625 208.300781 93.585938 C 208.4375 94.265625 208.539062 94.949219 208.605469 95.636719 C 208.671875 96.324219 208.707031 97.015625 208.707031 97.707031 Z M 208.707031 97.707031 "/>
</g>
<g clip-path="url(#clip2)" clip-rule="nonzero">
<path style=" stroke:none;fill-rule:nonzero;fill:rgb(11.759949%,56.469727%,100%);fill-opacity:1;" d="M 208.707031 277.457031 C 208.707031 278.148438 208.671875 278.839844 208.605469 279.527344 C 208.539062 280.21875 208.4375 280.902344 208.300781 281.578125 C 208.167969 282.257812 208 282.929688 207.796875 283.589844 C 207.597656 284.253906 207.363281 284.902344 207.097656 285.542969 C 206.835938 286.179688 206.539062 286.804688 206.214844 287.417969 C 205.886719 288.027344 205.53125 288.621094 205.148438 289.195312 C 204.761719 289.769531 204.351562 290.324219 203.914062 290.859375 C 203.472656 291.394531 203.007812 291.90625 202.519531 292.394531 C 202.03125 292.886719 201.519531 293.347656 200.984375 293.789062 C 200.449219 294.226562 199.894531 294.636719 199.320312 295.023438 C 198.742188 295.40625 198.152344 295.761719 197.539062 296.089844 C 196.929688 296.414062 196.304688 296.710938 195.667969 296.976562 C 195.027344 297.238281 194.378906 297.472656 193.714844 297.671875 C 193.054688 297.875 192.382812 298.042969 191.703125 298.175781 C 191.027344 298.3125 190.34375 298.414062 189.652344 298.480469 C 188.964844 298.550781 188.273438 298.582031 187.582031 298.582031 C 186.890625 298.582031 186.199219 298.550781 185.511719 298.480469 C 184.824219 298.414062 184.140625 298.3125 183.460938 298.175781 C 182.785156 298.042969 182.113281 297.875 181.449219 297.671875 C 180.789062 297.472656 180.136719 297.238281 179.5 296.976562 C 178.859375 296.710938 178.234375 296.414062 177.625 296.089844 C 177.015625 295.761719 176.421875 295.40625 175.847656 295.023438 C 175.273438 294.636719 174.714844 294.226562 174.183594 293.789062 C 173.648438 293.347656 173.136719 292.886719 172.644531 292.394531 C 172.15625 291.90625 171.691406 291.394531 171.253906 290.859375 C 170.816406 290.324219 170.402344 289.769531 170.019531 289.195312 C 169.632812 288.621094 169.277344 288.027344 168.953125 287.417969 C 168.625 286.804688 168.332031 286.179688 168.066406 285.542969 C 167.800781 284.902344 167.570312 284.253906 167.367188 283.589844 C 167.167969 282.929688 167 282.257812 166.863281 281.578125 C 166.730469 280.902344 166.628906 280.21875 166.558594 279.527344 C 166.492188 278.839844 166.457031 278.148438 166.457031 277.457031 C 166.457031 276.765625 166.492188 276.078125 166.558594 275.386719 C 166.628906 274.699219 166.730469 274.015625 166.863281 273.335938 C 167 272.660156 167.167969 271.988281 167.367188 271.328125 C 167.570312 270.664062 167.800781 270.015625 168.066406 269.375 C 168.332031 268.734375 168.625 268.109375 168.953125 267.5 C 169.277344 266.890625 169.632812 266.296875 170.019531 265.722656 C 170.402344 265.148438 170.816406 264.59375 171.253906 264.058594 C 171.691406 263.523438 172.15625 263.011719 172.644531 262.519531 C 173.136719 262.03125 173.648438 261.566406 174.183594 261.128906 C 174.714844 260.691406 175.273438 260.277344 175.847656 259.894531 C 176.421875 259.511719 177.015625 259.15625 177.625 258.828125 C 178.234375 258.503906 178.859375 258.207031 179.5 257.941406 C 180.136719 257.675781 180.789062 257.445312 181.449219 257.242188 C 182.113281 257.042969 182.78125 256.875 183.460938 256.738281 C 184.140625 256.605469 184.824219 256.503906 185.511719 256.4375 C 186.199219 256.367188 186.890625 256.335938 187.582031 256.335938 C 188.273438 256.335938 188.964844 256.367188 189.652344 256.4375 C 190.34375 256.503906 191.027344 256.605469 191.703125 256.738281 C 192.382812 256.875 193.054688 257.042969 193.714844 257.242188 C 194.378906 257.445312 195.027344 257.675781 195.667969 257.941406 C 196.304688 258.207031 196.929688 258.503906 197.539062 258.828125 C 198.152344 259.15625 198.742188 259.511719 199.320312 259.894531 C 199.894531 260.277344 200.449219 260.691406 200.984375 261.128906 C 201.519531 261.566406 202.03125 262.03125 202.519531 262.519531 C 203.007812 263.011719 203.472656 263.523438 203.914062 264.058594 C 204.351562 264.59375 204.761719 265.148438 205.148438 265.722656 C 205.53125 266.296875 205.886719 266.890625 206.214844 267.5 C 206.539062 268.109375 206.835938 268.734375 207.097656 269.375 C 207.363281 270.015625 207.597656 270.664062 207.796875 271.328125 C 208 271.988281 208.167969 272.660156 208.300781 273.335938 C 208.4375 274.015625 208.539062 274.699219 208.605469 275.386719 C 208.671875 276.078125 208.707031 276.765625 208.707031 277.457031 Z M 208.707031 277.457031 "/>
</g>
<g clip-path="url(#clip3)" clip-rule="nonzero">
<path style=" stroke:none;fill-rule:nonzero;fill:rgb(11.759949%,56.469727%,100%);fill-opacity:1;" d="M 118.832031 187.582031 C 118.832031 188.273438 118.796875 188.964844 118.730469 189.652344 C 118.664062 190.34375 118.5625 191.027344 118.425781 191.703125 C 118.289062 192.382812 118.121094 193.054688 117.921875 193.714844 C 117.722656 194.378906 117.488281 195.027344 117.222656 195.667969 C 116.960938 196.304688 116.664062 196.929688 116.335938 197.539062 C 116.011719 198.152344 115.65625 198.742188 115.273438 199.320312 C 114.886719 199.894531 114.476562 200.449219 114.035156 200.984375 C 113.597656 201.519531 113.132812 202.03125 112.644531 202.519531 C 112.15625 203.007812 111.644531 203.472656 111.109375 203.914062 C 110.574219 204.351562 110.019531 204.761719 109.445312 205.148438 C 108.867188 205.53125 108.277344 205.886719 107.664062 206.214844 C 107.054688 206.539062 106.429688 206.835938 105.792969 207.097656 C 105.152344 207.363281 104.5 207.597656 103.839844 207.796875 C 103.175781 208 102.507812 208.167969 101.828125 208.300781 C 101.148438 208.4375 100.464844 208.539062 99.777344 208.605469 C 99.089844 208.671875 98.398438 208.707031 97.707031 208.707031 C 97.015625 208.707031 96.324219 208.671875 95.636719 208.605469 C 94.949219 208.539062 94.265625 208.4375 93.585938 208.300781 C 92.90625 208.167969 92.238281 208 91.574219 207.796875 C 90.914062 207.597656 90.261719 207.363281 89.625 207.097656 C 88.984375 206.835938 88.359375 206.539062 87.75 206.214844 C 87.140625 205.886719 86.546875 205.53125 85.972656 205.148438 C 85.394531 204.761719 84.839844 204.351562 84.304688 203.914062 C 83.769531 203.472656 83.257812 203.007812 82.769531 202.519531 C 82.28125 202.03125 81.816406 201.519531 81.378906 200.984375 C 80.9375 200.449219 80.527344 199.894531 80.144531 199.320312 C 79.757812 198.742188 79.402344 198.152344 79.078125 197.539062 C 78.75 196.929688 78.457031 196.304688 78.191406 195.667969 C 77.925781 195.027344 77.695312 194.378906 77.492188 193.714844 C 77.292969 193.054688 77.125 192.382812 76.988281 191.703125 C 76.855469 191.027344 76.753906 190.34375 76.683594 189.652344 C 76.617188 188.964844 76.582031 188.273438 76.582031 187.582031 C 76.582031 186.890625 76.617188 186.199219 76.683594 185.511719 C 76.753906 184.824219 76.855469 184.140625 76.988281 183.460938 C 77.125 182.78125 77.292969 182.113281 77.492188 181.449219 C 77.695312 180.789062 77.925781 180.136719 78.191406 179.5 C 78.457031 178.859375 78.75 178.234375 79.078125 177.625 C 79.402344 177.015625 79.757812 176.421875 80.144531 175.847656 C 80.527344 175.273438 80.9375 174.714844 81.378906 174.183594 C 81.816406 173.648438 82.28125 173.136719 82.769531 172.644531 C 83.257812 172.15625 83.769531 171.691406 84.304688 171.253906 C 84.839844 170.816406 85.394531 170.402344 85.972656 170.019531 C 86.546875 169.632812 87.140625 169.277344 87.75 168.953125 C 88.359375 168.625 88.984375 168.332031 89.625 168.066406 C 90.261719 167.800781 90.914062 167.570312 91.574219 167.367188 C 92.238281 167.167969 92.90625 167 93.585938 166.863281 C 94.265625 166.730469 94.949219 166.628906 95.636719 166.558594 C 96.324219 166.492188 97.015625 166.457031 97.707031 166.457031 C 98.398438 166.457031 99.089844 166.492188 99.777344 166.558594 C 100.464844 166.628906 101.148438 166.730469 101.828125 166.863281 C 102.507812 167 103.175781 167.167969 103.839844 167.367188 C 104.5 167.570312 105.152344 167.800781 105.792969 168.066406 C 106.429688 168.332031 107.054688 168.625 107.664062 168.953125 C 108.277344 169.277344 108.867188 169.632812 109.445312 170.019531 C 110.019531 170.402344 110.574219 170.816406 111.109375 171.253906 C 111.644531 171.691406 112.15625 172.15625 112.644531 172.644531 C 113.132812 173.136719 113.597656 173.648438 114.035156 174.183594 C 114.476562 174.714844 114.886719 175.273438 115.273438 175.847656 C 115.65625 176.421875 116.011719 177.015625 116.335938 177.625 C 116.664062 178.234375 116.960938 178.859375 117.222656 179.5 C 117.488281 180.136719 117.722656 180.789062 117.921875 181.449219 C 118.121094 182.113281 118.289062 182.78125 118.425781 183.460938 C 118.5625 184.140625 118.664062 184.824219 118.730469 185.511719 C 118.796875 186.199219 118.832031 186.890625 118.832031 187.582031 Z M 118.832031 187.582031 "/>
</g>
<g clip-path="url(#clip4)" clip-rule="nonzero">
<path style=" stroke:none;fill-rule:nonzero;fill:rgb(11.759949%,56.469727%,100%);fill-opacity:1;" d="M 298.582031 187.582031 C 298.582031 188.273438 298.550781 188.964844 298.480469 189.652344 C 298.414062 190.34375 298.3125 191.027344 298.175781 191.703125 C 298.042969 192.382812 297.875 193.054688 297.671875 193.714844 C 297.472656 194.378906 297.238281 195.027344 296.976562 195.667969 C 296.710938 196.304688 296.414062 196.929688 296.089844 197.539062 C 295.761719 198.152344 295.40625 198.742188 295.023438 199.320312 C 294.636719 199.894531 294.226562 200.449219 293.789062 200.984375 C 293.347656 201.519531 292.886719 202.03125 292.394531 202.519531 C 291.90625 203.007812 291.394531 203.472656 290.859375 203.914062 C 290.324219 204.351562 289.769531 204.761719 289.195312 205.148438 C 288.621094 205.53125 288.027344 205.886719 287.417969 206.214844 C 286.804688 206.539062 286.179688 206.835938 285.542969 207.097656 C 284.902344 207.363281 284.253906 207.597656 283.589844 207.796875 C 282.929688 208 282.257812 208.167969 281.578125 208.300781 C 280.902344 208.4375 280.21875 208.539062 279.527344 208.605469 C 278.839844 208.671875 278.148438 208.707031 277.457031 208.707031 C 276.765625 208.707031 276.078125 208.671875 275.386719 208.605469 C 274.699219 208.539062 274.015625 208.4375 273.335938 208.300781 C 272.660156 208.167969 271.988281 208 271.328125 207.796875 C 270.664062 207.597656 270.015625 207.363281 269.375 207.097656 C 268.734375 206.835938 268.109375 206.539062 267.5 206.214844 C 266.890625 205.886719 266.296875 205.53125 265.722656 205.148438 C 265.148438 204.761719 264.59375 204.351562 264.058594 203.914062 C 263.523438 203.472656 263.011719 203.007812 262.519531 202.519531 C 262.03125 202.03125 261.566406 201.519531 261.128906 200.984375 C 260.691406 200.449219 260.277344 199.894531 259.894531 199.320312 C 259.511719 198.742188 259.15625 198.152344 258.828125 197.539062 C 258.503906 196.929688 258.207031 196.304688 257.941406 195.667969 C 257.675781 195.027344 257.445312 194.378906 257.242188 193.714844 C 257.042969 193.054688 256.875 192.382812 256.738281 191.703125 C 256.605469 191.027344 256.503906 190.34375 256.4375 189.652344 C 256.367188 188.964844 256.335938 188.273438 256.335938 187.582031 C 256.335938 186.890625 256.367188 186.199219 256.4375 185.511719 C 256.503906 184.824219 256.605469 184.140625 256.738281 183.460938 C 256.875 182.78125 257.042969 182.113281 257.242188 181.449219 C 257.445312 180.789062 257.675781 180.136719 257.941406 179.5 C 258.207031 178.859375 258.503906 178.234375 258.828125 177.625 C 259.15625 177.015625 259.511719 176.421875 259.894531 175.847656 C 260.277344 175.273438 260.691406 174.714844 261.128906 174.183594 C 261.566406 173.648438 262.03125 173.136719 262.519531 172.644531 C 263.011719 172.15625 263.523438 171.691406 264.058594 171.253906 C 264.59375 170.816406 265.148438 170.402344 265.722656 170.019531 C 266.296875 169.632812 266.890625 169.277344 267.5 168.953125 C 268.109375 168.625 268.734375 168.332031 269.375 168.066406 C 270.015625 167.800781 270.664062 167.570312 271.328125 167.367188 C 271.988281 167.167969 272.660156 167 273.335938 166.863281 C 274.015625 166.730469 274.699219 166.628906 275.386719 166.558594 C 276.078125 166.492188 276.765625 166.457031 277.457031 166.457031 C 278.148438 166.457031 278.839844 166.492188 279.527344 166.558594 C 280.21875 166.628906 280.902344 166.730469 281.578125 166.863281 C 282.257812 167 282.929688 167.167969 283.589844 167.367188 C 284.253906 167.570312 284.902344 167.800781 285.542969 168.066406 C 286.179688 168.332031 286.804688 168.625 287.417969 168.953125 C 288.027344 169.277344 288.621094 169.632812 289.195312 170.019531 C 289.769531 170.402344 290.324219 170.816406 290.859375 171.253906 C 291.394531 171.691406 291.90625 172.15625 292.394531 172.644531 C 292.886719 173.136719 293.347656 173.648438 293.789062 174.183594 C 294.226562 174.714844 294.636719 175.273438 295.023438 175.847656 C 295.40625 176.421875 295.761719 177.015625 296.089844 177.625 C 296.414062 178.234375 296.710938 178.859375 296.976562 179.5 C 297.238281 180.136719 297.472656 180.789062 297.671875 181.449219 C 297.875 182.113281 298.042969 182.78125 298.175781 183.460938 C 298.3125 184.140625 298.414062 184.824219 298.480469 185.511719 C 298.550781 186.199219 298.582031 186.890625 298.582031 187.582031 Z M 298.582031 187.582031 "/>
</g>
<g clip-path="url(#clip5)" clip-rule="nonzero">
<path style=" stroke:none;fill-rule:nonzero;fill:rgb(9.799194%,9.799194%,11.759949%);fill-opacity:1;" d="M 248.808594 245.078125 L 219.957031 216.222656 C 212.421875 208.6875 208.621094 198.375 208.691406 187.71875 C 208.691406 187.628906 208.691406 187.535156 208.691406 187.445312 C 208.621094 176.789062 212.421875 166.476562 219.957031 158.945312 L 248.878906 130.023438 C 256.410156 122.488281 266.730469 118.773438 277.382812 118.824219 C 282.941406 118.847656 288.503906 116.691406 292.683594 112.351562 C 300.296875 104.441406 300.492188 91.636719 293.105469 83.515625 C 284.929688 74.527344 271.011719 74.28125 262.519531 82.769531 C 258.335938 86.953125 256.28125 92.453125 256.34375 97.929688 C 256.464844 108.558594 252.59375 118.839844 245.078125 126.355469 L 216.222656 155.210938 C 208.6875 162.742188 198.375 166.542969 187.71875 166.476562 C 187.628906 166.476562 187.535156 166.476562 187.445312 166.476562 C 176.789062 166.542969 166.476562 162.742188 158.945312 155.210938 L 130.023438 126.289062 C 122.488281 118.753906 118.773438 108.433594 118.824219 97.78125 C 118.847656 92.226562 116.691406 86.660156 112.351562 82.480469 C 104.441406 74.867188 91.636719 74.671875 83.515625 82.0625 C 74.527344 90.234375 74.28125 104.15625 82.769531 112.644531 C 86.953125 116.828125 92.453125 118.886719 97.929688 118.820312 C 108.558594 118.699219 118.839844 122.574219 126.355469 130.089844 L 155.210938 158.945312 C 162.742188 166.476562 166.542969 176.789062 166.476562 187.445312 C 166.472656 187.535156 166.472656 187.628906 166.476562 187.71875 C 166.542969 198.375 162.742188 208.6875 155.210938 216.222656 L 126.289062 245.144531 C 118.753906 252.675781 108.433594 256.390625 97.78125 256.34375 C 92.226562 256.316406 86.660156 258.472656 82.480469 262.8125 C 74.867188 270.726562 74.671875 283.527344 82.0625 291.652344 C 90.234375 300.636719 104.15625 300.886719 112.644531 292.394531 C 116.828125 288.210938 118.886719 282.714844 118.820312 277.234375 C 118.699219 266.605469 122.574219 256.324219 130.089844 248.8125 L 158.945312 219.957031 C 166.476562 212.421875 176.789062 208.621094 187.445312 208.691406 C 187.535156 208.691406 187.628906 208.691406 187.71875 208.691406 C 198.375 208.621094 208.6875 212.421875 216.222656 219.957031 L 245.144531 248.878906 C 252.675781 256.410156 256.390625 266.730469 256.34375 277.382812 C 256.316406 282.941406 258.472656 288.503906 262.8125 292.683594 C 270.726562 300.296875 283.527344 300.492188 291.652344 293.105469 C 300.636719 284.929688 300.886719 271.011719 292.394531 262.519531 C 288.210938 258.335938 282.714844 256.28125 277.234375 256.34375 C 266.605469 256.464844 256.324219 252.59375 248.808594 245.078125 Z M 248.808594 245.078125 "/>
</g>
</g>
</svg>
